<mxfile host="app.diagrams.net" modified="2023-07-13T05:30:47.535Z" agent="Mozilla/5.0 (Windows NT 10.0; Win64; x64) AppleWebKit/537.36 (KHTML, like Gecko) Chrome/114.0.0.0 Safari/537.36" etag="uSmwpWPWKaFlz_wy7fJG" version="21.6.1" type="github">
  <diagram id="C5RBs43oDa-KdzZeNtuy" name="Page-1">
    <mxGraphModel dx="1434" dy="1959" grid="1" gridSize="10" guides="1" tooltips="1" connect="1" arrows="1" fold="1" page="1" pageScale="1" pageWidth="827" pageHeight="1169" math="0" shadow="0">
      <root>
        <mxCell id="WIyWlLk6GJQsqaUBKTNV-0" />
        <mxCell id="WIyWlLk6GJQsqaUBKTNV-1" parent="WIyWlLk6GJQsqaUBKTNV-0" />
        <mxCell id="jn2Spj3KKP_-GAii750T-11" value="" style="edgeStyle=orthogonalEdgeStyle;rounded=0;orthogonalLoop=1;jettySize=auto;html=1;" edge="1" parent="WIyWlLk6GJQsqaUBKTNV-1" source="WIyWlLk6GJQsqaUBKTNV-3" target="jn2Spj3KKP_-GAii750T-10">
          <mxGeometry relative="1" as="geometry" />
        </mxCell>
        <mxCell id="WIyWlLk6GJQsqaUBKTNV-3" value="按下按钮开始录制" style="rounded=1;whiteSpace=wrap;html=1;fontSize=12;glass=0;strokeWidth=1;shadow=0;" parent="WIyWlLk6GJQsqaUBKTNV-1" vertex="1">
          <mxGeometry x="160" y="-130" width="120" height="40" as="geometry" />
        </mxCell>
        <mxCell id="jn2Spj3KKP_-GAii750T-1" style="edgeStyle=orthogonalEdgeStyle;rounded=0;orthogonalLoop=1;jettySize=auto;html=1;exitX=0.5;exitY=1;exitDx=0;exitDy=0;exitPerimeter=0;entryX=0.5;entryY=0;entryDx=0;entryDy=0;" edge="1" parent="WIyWlLk6GJQsqaUBKTNV-1" source="jn2Spj3KKP_-GAii750T-0" target="WIyWlLk6GJQsqaUBKTNV-3">
          <mxGeometry relative="1" as="geometry" />
        </mxCell>
        <mxCell id="jn2Spj3KKP_-GAii750T-0" value="开始" style="strokeWidth=2;html=1;shape=mxgraph.flowchart.terminator;whiteSpace=wrap;" vertex="1" parent="WIyWlLk6GJQsqaUBKTNV-1">
          <mxGeometry x="170" y="-260" width="100" height="60" as="geometry" />
        </mxCell>
        <mxCell id="jn2Spj3KKP_-GAii750T-93" value="" style="edgeStyle=orthogonalEdgeStyle;rounded=0;orthogonalLoop=1;jettySize=auto;html=1;" edge="1" parent="WIyWlLk6GJQsqaUBKTNV-1" source="jn2Spj3KKP_-GAii750T-10" target="jn2Spj3KKP_-GAii750T-92">
          <mxGeometry relative="1" as="geometry" />
        </mxCell>
        <mxCell id="jn2Spj3KKP_-GAii750T-10" value="初始化录音配置" style="whiteSpace=wrap;html=1;rounded=1;glass=0;strokeWidth=1;shadow=0;" vertex="1" parent="WIyWlLk6GJQsqaUBKTNV-1">
          <mxGeometry x="160" y="-50" width="120" height="60" as="geometry" />
        </mxCell>
        <mxCell id="jn2Spj3KKP_-GAii750T-32" value="初始化录音配置" style="swimlane;whiteSpace=wrap;html=1;" vertex="1" parent="WIyWlLk6GJQsqaUBKTNV-1">
          <mxGeometry x="1180" y="60" width="200" height="550" as="geometry" />
        </mxCell>
        <mxCell id="jn2Spj3KKP_-GAii750T-2" value="创建录音保存文件" style="rounded=1;whiteSpace=wrap;html=1;" vertex="1" parent="jn2Spj3KKP_-GAii750T-32">
          <mxGeometry x="40" y="90" width="120" height="50" as="geometry" />
        </mxCell>
        <mxCell id="jn2Spj3KKP_-GAii750T-3" value="计算出能被整除的最小音频缓存buffer的字节数" style="whiteSpace=wrap;html=1;rounded=1;" vertex="1" parent="jn2Spj3KKP_-GAii750T-32">
          <mxGeometry x="40" y="180" width="120" height="60" as="geometry" />
        </mxCell>
        <mxCell id="jn2Spj3KKP_-GAii750T-4" value="" style="edgeStyle=orthogonalEdgeStyle;rounded=0;orthogonalLoop=1;jettySize=auto;html=1;" edge="1" parent="jn2Spj3KKP_-GAii750T-32" source="jn2Spj3KKP_-GAii750T-2" target="jn2Spj3KKP_-GAii750T-3">
          <mxGeometry relative="1" as="geometry" />
        </mxCell>
        <mxCell id="jn2Spj3KKP_-GAii750T-6" value="初始化AudioRecord" style="whiteSpace=wrap;html=1;rounded=1;" vertex="1" parent="jn2Spj3KKP_-GAii750T-32">
          <mxGeometry x="40" y="260" width="120" height="60" as="geometry" />
        </mxCell>
        <mxCell id="jn2Spj3KKP_-GAii750T-7" value="" style="edgeStyle=orthogonalEdgeStyle;rounded=0;orthogonalLoop=1;jettySize=auto;html=1;" edge="1" parent="jn2Spj3KKP_-GAii750T-32" source="jn2Spj3KKP_-GAii750T-3" target="jn2Spj3KKP_-GAii750T-6">
          <mxGeometry relative="1" as="geometry" />
        </mxCell>
        <mxCell id="jn2Spj3KKP_-GAii750T-36" value="" style="edgeStyle=orthogonalEdgeStyle;rounded=0;orthogonalLoop=1;jettySize=auto;html=1;" edge="1" parent="jn2Spj3KKP_-GAii750T-32" source="jn2Spj3KKP_-GAii750T-8" target="jn2Spj3KKP_-GAii750T-35">
          <mxGeometry relative="1" as="geometry" />
        </mxCell>
        <mxCell id="jn2Spj3KKP_-GAii750T-8" value="初始化Lame录制参数" style="whiteSpace=wrap;html=1;rounded=1;" vertex="1" parent="jn2Spj3KKP_-GAii750T-32">
          <mxGeometry x="40" y="350" width="120" height="60" as="geometry" />
        </mxCell>
        <mxCell id="jn2Spj3KKP_-GAii750T-9" value="" style="edgeStyle=orthogonalEdgeStyle;rounded=0;orthogonalLoop=1;jettySize=auto;html=1;" edge="1" parent="jn2Spj3KKP_-GAii750T-32" source="jn2Spj3KKP_-GAii750T-6" target="jn2Spj3KKP_-GAii750T-8">
          <mxGeometry relative="1" as="geometry" />
        </mxCell>
        <mxCell id="jn2Spj3KKP_-GAii750T-34" value="" style="edgeStyle=orthogonalEdgeStyle;rounded=0;orthogonalLoop=1;jettySize=auto;html=1;" edge="1" parent="jn2Spj3KKP_-GAii750T-32" source="jn2Spj3KKP_-GAii750T-33" target="jn2Spj3KKP_-GAii750T-2">
          <mxGeometry relative="1" as="geometry" />
        </mxCell>
        <mxCell id="jn2Spj3KKP_-GAii750T-33" value="开始" style="strokeWidth=2;html=1;shape=mxgraph.flowchart.terminator;whiteSpace=wrap;" vertex="1" parent="jn2Spj3KKP_-GAii750T-32">
          <mxGeometry x="50" y="30" width="100" height="30" as="geometry" />
        </mxCell>
        <mxCell id="jn2Spj3KKP_-GAii750T-38" value="" style="edgeStyle=orthogonalEdgeStyle;rounded=0;orthogonalLoop=1;jettySize=auto;html=1;" edge="1" parent="jn2Spj3KKP_-GAii750T-32" source="jn2Spj3KKP_-GAii750T-35" target="jn2Spj3KKP_-GAii750T-37">
          <mxGeometry relative="1" as="geometry" />
        </mxCell>
        <mxCell id="jn2Spj3KKP_-GAii750T-35" value="设置每160帧通知线程将音频数据编码成MP3" style="whiteSpace=wrap;html=1;rounded=1;" vertex="1" parent="jn2Spj3KKP_-GAii750T-32">
          <mxGeometry x="40" y="420" width="120" height="60" as="geometry" />
        </mxCell>
        <mxCell id="jn2Spj3KKP_-GAii750T-37" value="结束" style="strokeWidth=2;html=1;shape=mxgraph.flowchart.terminator;whiteSpace=wrap;" vertex="1" parent="jn2Spj3KKP_-GAii750T-32">
          <mxGeometry x="50" y="510" width="100" height="30" as="geometry" />
        </mxCell>
        <mxCell id="jn2Spj3KKP_-GAii750T-45" value="" style="edgeStyle=orthogonalEdgeStyle;rounded=0;orthogonalLoop=1;jettySize=auto;html=1;" edge="1" parent="WIyWlLk6GJQsqaUBKTNV-1" source="jn2Spj3KKP_-GAii750T-41" target="jn2Spj3KKP_-GAii750T-44">
          <mxGeometry relative="1" as="geometry" />
        </mxCell>
        <mxCell id="jn2Spj3KKP_-GAii750T-50" value="是" style="edgeLabel;html=1;align=center;verticalAlign=middle;resizable=0;points=[];" vertex="1" connectable="0" parent="jn2Spj3KKP_-GAii750T-45">
          <mxGeometry x="0.2" y="-1" relative="1" as="geometry">
            <mxPoint as="offset" />
          </mxGeometry>
        </mxCell>
        <mxCell id="jn2Spj3KKP_-GAii750T-47" value="" style="edgeStyle=orthogonalEdgeStyle;rounded=0;orthogonalLoop=1;jettySize=auto;html=1;" edge="1" parent="WIyWlLk6GJQsqaUBKTNV-1" source="jn2Spj3KKP_-GAii750T-41">
          <mxGeometry relative="1" as="geometry">
            <mxPoint x="320" y="290" as="targetPoint" />
          </mxGeometry>
        </mxCell>
        <mxCell id="jn2Spj3KKP_-GAii750T-51" value="否" style="edgeLabel;html=1;align=center;verticalAlign=middle;resizable=0;points=[];" vertex="1" connectable="0" parent="jn2Spj3KKP_-GAii750T-47">
          <mxGeometry x="-0.3719" y="-3" relative="1" as="geometry">
            <mxPoint as="offset" />
          </mxGeometry>
        </mxCell>
        <mxCell id="jn2Spj3KKP_-GAii750T-41" value="可以录音" style="rhombus;whiteSpace=wrap;html=1;" vertex="1" parent="WIyWlLk6GJQsqaUBKTNV-1">
          <mxGeometry x="180" y="250" width="80" height="80" as="geometry" />
        </mxCell>
        <mxCell id="jn2Spj3KKP_-GAii750T-49" style="edgeStyle=orthogonalEdgeStyle;rounded=0;orthogonalLoop=1;jettySize=auto;html=1;entryX=0;entryY=0.5;entryDx=0;entryDy=0;" edge="1" parent="WIyWlLk6GJQsqaUBKTNV-1" source="jn2Spj3KKP_-GAii750T-44" target="jn2Spj3KKP_-GAii750T-41">
          <mxGeometry relative="1" as="geometry">
            <Array as="points">
              <mxPoint x="110" y="410" />
              <mxPoint x="110" y="290" />
            </Array>
          </mxGeometry>
        </mxCell>
        <mxCell id="jn2Spj3KKP_-GAii750T-44" value="读取数据，进行编码，计算音量" style="rounded=1;whiteSpace=wrap;html=1;" vertex="1" parent="WIyWlLk6GJQsqaUBKTNV-1">
          <mxGeometry x="160" y="380" width="120" height="60" as="geometry" />
        </mxCell>
        <mxCell id="jn2Spj3KKP_-GAii750T-79" value="" style="edgeStyle=orthogonalEdgeStyle;rounded=0;orthogonalLoop=1;jettySize=auto;html=1;" edge="1" parent="WIyWlLk6GJQsqaUBKTNV-1" source="jn2Spj3KKP_-GAii750T-48" target="jn2Spj3KKP_-GAii750T-78">
          <mxGeometry relative="1" as="geometry" />
        </mxCell>
        <mxCell id="jn2Spj3KKP_-GAii750T-48" value="结束录音，释放资源" style="rounded=1;whiteSpace=wrap;html=1;" vertex="1" parent="WIyWlLk6GJQsqaUBKTNV-1">
          <mxGeometry x="320" y="260" width="120" height="60" as="geometry" />
        </mxCell>
        <mxCell id="jn2Spj3KKP_-GAii750T-52" value="进行编码" style="swimlane;whiteSpace=wrap;html=1;" vertex="1" parent="WIyWlLk6GJQsqaUBKTNV-1">
          <mxGeometry x="670" y="60" width="460" height="550" as="geometry" />
        </mxCell>
        <mxCell id="jn2Spj3KKP_-GAii750T-55" value="" style="edgeStyle=orthogonalEdgeStyle;rounded=0;orthogonalLoop=1;jettySize=auto;html=1;" edge="1" parent="jn2Spj3KKP_-GAii750T-52" source="jn2Spj3KKP_-GAii750T-53">
          <mxGeometry relative="1" as="geometry">
            <mxPoint x="190" y="130" as="targetPoint" />
          </mxGeometry>
        </mxCell>
        <mxCell id="jn2Spj3KKP_-GAii750T-53" value="开始" style="strokeWidth=2;html=1;shape=mxgraph.flowchart.terminator;whiteSpace=wrap;" vertex="1" parent="jn2Spj3KKP_-GAii750T-52">
          <mxGeometry x="140" y="60" width="100" height="30" as="geometry" />
        </mxCell>
        <mxCell id="jn2Spj3KKP_-GAii750T-61" value="" style="edgeStyle=orthogonalEdgeStyle;rounded=0;orthogonalLoop=1;jettySize=auto;html=1;" edge="1" parent="jn2Spj3KKP_-GAii750T-52" source="jn2Spj3KKP_-GAii750T-56">
          <mxGeometry relative="1" as="geometry">
            <mxPoint x="190" y="260" as="targetPoint" />
          </mxGeometry>
        </mxCell>
        <mxCell id="jn2Spj3KKP_-GAii750T-62" value="是" style="edgeLabel;html=1;align=center;verticalAlign=middle;resizable=0;points=[];" vertex="1" connectable="0" parent="jn2Spj3KKP_-GAii750T-61">
          <mxGeometry x="0.24" y="-1" relative="1" as="geometry">
            <mxPoint as="offset" />
          </mxGeometry>
        </mxCell>
        <mxCell id="jn2Spj3KKP_-GAii750T-68" value="" style="edgeStyle=orthogonalEdgeStyle;rounded=0;orthogonalLoop=1;jettySize=auto;html=1;" edge="1" parent="jn2Spj3KKP_-GAii750T-52" source="jn2Spj3KKP_-GAii750T-56" target="jn2Spj3KKP_-GAii750T-67">
          <mxGeometry relative="1" as="geometry" />
        </mxCell>
        <mxCell id="jn2Spj3KKP_-GAii750T-69" value="否" style="edgeLabel;html=1;align=center;verticalAlign=middle;resizable=0;points=[];" vertex="1" connectable="0" parent="jn2Spj3KKP_-GAii750T-68">
          <mxGeometry x="-0.2667" y="1" relative="1" as="geometry">
            <mxPoint as="offset" />
          </mxGeometry>
        </mxCell>
        <mxCell id="jn2Spj3KKP_-GAii750T-56" value="Handler接收信号，判断是否结束编码" style="rhombus;whiteSpace=wrap;html=1;" vertex="1" parent="jn2Spj3KKP_-GAii750T-52">
          <mxGeometry x="150" y="120" width="80" height="80" as="geometry" />
        </mxCell>
        <mxCell id="jn2Spj3KKP_-GAii750T-65" value="" style="edgeStyle=orthogonalEdgeStyle;rounded=0;orthogonalLoop=1;jettySize=auto;html=1;" edge="1" parent="jn2Spj3KKP_-GAii750T-52" source="jn2Spj3KKP_-GAii750T-63" target="jn2Spj3KKP_-GAii750T-64">
          <mxGeometry relative="1" as="geometry" />
        </mxCell>
        <mxCell id="jn2Spj3KKP_-GAii750T-66" value="是" style="edgeLabel;html=1;align=center;verticalAlign=middle;resizable=0;points=[];" vertex="1" connectable="0" parent="jn2Spj3KKP_-GAii750T-65">
          <mxGeometry x="-0.2" y="4" relative="1" as="geometry">
            <mxPoint as="offset" />
          </mxGeometry>
        </mxCell>
        <mxCell id="jn2Spj3KKP_-GAii750T-63" value="是否有音频数据" style="rhombus;whiteSpace=wrap;html=1;" vertex="1" parent="jn2Spj3KKP_-GAii750T-52">
          <mxGeometry x="150" y="250" width="80" height="80" as="geometry" />
        </mxCell>
        <mxCell id="jn2Spj3KKP_-GAii750T-72" style="edgeStyle=orthogonalEdgeStyle;rounded=0;orthogonalLoop=1;jettySize=auto;html=1;entryX=0;entryY=0.5;entryDx=0;entryDy=0;" edge="1" parent="jn2Spj3KKP_-GAii750T-52" source="jn2Spj3KKP_-GAii750T-64" target="jn2Spj3KKP_-GAii750T-63">
          <mxGeometry relative="1" as="geometry">
            <Array as="points">
              <mxPoint x="100" y="400" />
              <mxPoint x="100" y="290" />
            </Array>
          </mxGeometry>
        </mxCell>
        <mxCell id="jn2Spj3KKP_-GAii750T-64" value="Lame编码成MP3写入文件" style="rounded=1;whiteSpace=wrap;html=1;" vertex="1" parent="jn2Spj3KKP_-GAii750T-52">
          <mxGeometry x="130" y="370" width="120" height="60" as="geometry" />
        </mxCell>
        <mxCell id="jn2Spj3KKP_-GAii750T-71" value="" style="edgeStyle=orthogonalEdgeStyle;rounded=0;orthogonalLoop=1;jettySize=auto;html=1;" edge="1" parent="jn2Spj3KKP_-GAii750T-52" source="jn2Spj3KKP_-GAii750T-67" target="jn2Spj3KKP_-GAii750T-70">
          <mxGeometry relative="1" as="geometry" />
        </mxCell>
        <mxCell id="jn2Spj3KKP_-GAii750T-67" value="进行最后一次读取编码后关闭线程" style="rounded=1;whiteSpace=wrap;html=1;" vertex="1" parent="jn2Spj3KKP_-GAii750T-52">
          <mxGeometry x="290" y="130" width="120" height="60" as="geometry" />
        </mxCell>
        <mxCell id="jn2Spj3KKP_-GAii750T-70" value="结束" style="strokeWidth=2;html=1;shape=mxgraph.flowchart.terminator;whiteSpace=wrap;" vertex="1" parent="jn2Spj3KKP_-GAii750T-52">
          <mxGeometry x="300" y="250" width="100" height="30" as="geometry" />
        </mxCell>
        <mxCell id="jn2Spj3KKP_-GAii750T-73" value="" style="endArrow=classic;html=1;rounded=0;" edge="1" parent="jn2Spj3KKP_-GAii750T-52">
          <mxGeometry width="50" height="50" relative="1" as="geometry">
            <mxPoint x="60" y="159.5" as="sourcePoint" />
            <mxPoint x="150" y="159.5" as="targetPoint" />
          </mxGeometry>
        </mxCell>
        <mxCell id="jn2Spj3KKP_-GAii750T-74" value="接收Handler信号" style="edgeLabel;html=1;align=center;verticalAlign=middle;resizable=0;points=[];" vertex="1" connectable="0" parent="jn2Spj3KKP_-GAii750T-73">
          <mxGeometry x="-0.2444" y="1" relative="1" as="geometry">
            <mxPoint y="1" as="offset" />
          </mxGeometry>
        </mxCell>
        <mxCell id="jn2Spj3KKP_-GAii750T-81" value="" style="edgeStyle=orthogonalEdgeStyle;rounded=0;orthogonalLoop=1;jettySize=auto;html=1;" edge="1" parent="WIyWlLk6GJQsqaUBKTNV-1" source="jn2Spj3KKP_-GAii750T-78" target="jn2Spj3KKP_-GAii750T-80">
          <mxGeometry relative="1" as="geometry" />
        </mxCell>
        <mxCell id="jn2Spj3KKP_-GAii750T-84" value="是" style="edgeLabel;html=1;align=center;verticalAlign=middle;resizable=0;points=[];" vertex="1" connectable="0" parent="jn2Spj3KKP_-GAii750T-81">
          <mxGeometry x="0.1077" y="-1" relative="1" as="geometry">
            <mxPoint as="offset" />
          </mxGeometry>
        </mxCell>
        <mxCell id="jn2Spj3KKP_-GAii750T-83" value="" style="edgeStyle=orthogonalEdgeStyle;rounded=0;orthogonalLoop=1;jettySize=auto;html=1;" edge="1" parent="WIyWlLk6GJQsqaUBKTNV-1" source="jn2Spj3KKP_-GAii750T-78" target="jn2Spj3KKP_-GAii750T-82">
          <mxGeometry relative="1" as="geometry" />
        </mxCell>
        <mxCell id="jn2Spj3KKP_-GAii750T-85" value="否" style="edgeLabel;html=1;align=center;verticalAlign=middle;resizable=0;points=[];" vertex="1" connectable="0" parent="jn2Spj3KKP_-GAii750T-83">
          <mxGeometry x="-0.0333" y="-2" relative="1" as="geometry">
            <mxPoint as="offset" />
          </mxGeometry>
        </mxCell>
        <mxCell id="jn2Spj3KKP_-GAii750T-78" value="判断音频是否大于2s" style="rhombus;whiteSpace=wrap;html=1;" vertex="1" parent="WIyWlLk6GJQsqaUBKTNV-1">
          <mxGeometry x="340" y="380" width="80" height="80" as="geometry" />
        </mxCell>
        <mxCell id="jn2Spj3KKP_-GAii750T-87" value="" style="edgeStyle=orthogonalEdgeStyle;rounded=0;orthogonalLoop=1;jettySize=auto;html=1;" edge="1" parent="WIyWlLk6GJQsqaUBKTNV-1" source="jn2Spj3KKP_-GAii750T-80" target="jn2Spj3KKP_-GAii750T-86">
          <mxGeometry relative="1" as="geometry" />
        </mxCell>
        <mxCell id="jn2Spj3KKP_-GAii750T-80" value="保存音频" style="rounded=1;whiteSpace=wrap;html=1;" vertex="1" parent="WIyWlLk6GJQsqaUBKTNV-1">
          <mxGeometry x="320" y="525" width="120" height="60" as="geometry" />
        </mxCell>
        <mxCell id="jn2Spj3KKP_-GAii750T-89" style="edgeStyle=orthogonalEdgeStyle;rounded=0;orthogonalLoop=1;jettySize=auto;html=1;entryX=1;entryY=0.5;entryDx=0;entryDy=0;entryPerimeter=0;" edge="1" parent="WIyWlLk6GJQsqaUBKTNV-1" source="jn2Spj3KKP_-GAii750T-82" target="jn2Spj3KKP_-GAii750T-86">
          <mxGeometry relative="1" as="geometry">
            <Array as="points">
              <mxPoint x="540" y="670" />
            </Array>
          </mxGeometry>
        </mxCell>
        <mxCell id="jn2Spj3KKP_-GAii750T-82" value="删除音频" style="rounded=1;whiteSpace=wrap;html=1;" vertex="1" parent="WIyWlLk6GJQsqaUBKTNV-1">
          <mxGeometry x="480" y="390" width="120" height="60" as="geometry" />
        </mxCell>
        <mxCell id="jn2Spj3KKP_-GAii750T-86" value="结束" style="strokeWidth=2;html=1;shape=mxgraph.flowchart.terminator;whiteSpace=wrap;" vertex="1" parent="WIyWlLk6GJQsqaUBKTNV-1">
          <mxGeometry x="330" y="640" width="100" height="60" as="geometry" />
        </mxCell>
        <mxCell id="jn2Spj3KKP_-GAii750T-96" value="" style="edgeStyle=orthogonalEdgeStyle;rounded=0;orthogonalLoop=1;jettySize=auto;html=1;" edge="1" parent="WIyWlLk6GJQsqaUBKTNV-1" source="jn2Spj3KKP_-GAii750T-92" target="jn2Spj3KKP_-GAii750T-95">
          <mxGeometry relative="1" as="geometry" />
        </mxCell>
        <mxCell id="jn2Spj3KKP_-GAii750T-92" value="启动超时判断" style="rounded=1;whiteSpace=wrap;html=1;" vertex="1" parent="WIyWlLk6GJQsqaUBKTNV-1">
          <mxGeometry x="160" y="50" width="120" height="60" as="geometry" />
        </mxCell>
        <mxCell id="jn2Spj3KKP_-GAii750T-97" value="" style="edgeStyle=orthogonalEdgeStyle;rounded=0;orthogonalLoop=1;jettySize=auto;html=1;" edge="1" parent="WIyWlLk6GJQsqaUBKTNV-1" source="jn2Spj3KKP_-GAii750T-95" target="jn2Spj3KKP_-GAii750T-41">
          <mxGeometry relative="1" as="geometry" />
        </mxCell>
        <mxCell id="jn2Spj3KKP_-GAii750T-98" value="否" style="edgeLabel;html=1;align=center;verticalAlign=middle;resizable=0;points=[];" vertex="1" connectable="0" parent="jn2Spj3KKP_-GAii750T-97">
          <mxGeometry x="0.6" y="2" relative="1" as="geometry">
            <mxPoint as="offset" />
          </mxGeometry>
        </mxCell>
        <mxCell id="jn2Spj3KKP_-GAii750T-99" style="edgeStyle=orthogonalEdgeStyle;rounded=0;orthogonalLoop=1;jettySize=auto;html=1;entryX=0.5;entryY=0;entryDx=0;entryDy=0;" edge="1" parent="WIyWlLk6GJQsqaUBKTNV-1" source="jn2Spj3KKP_-GAii750T-95" target="jn2Spj3KKP_-GAii750T-48">
          <mxGeometry relative="1" as="geometry" />
        </mxCell>
        <mxCell id="jn2Spj3KKP_-GAii750T-100" value="是" style="edgeLabel;html=1;align=center;verticalAlign=middle;resizable=0;points=[];" vertex="1" connectable="0" parent="jn2Spj3KKP_-GAii750T-99">
          <mxGeometry x="-0.16" y="-5" relative="1" as="geometry">
            <mxPoint as="offset" />
          </mxGeometry>
        </mxCell>
        <mxCell id="jn2Spj3KKP_-GAii750T-95" value="是否超时" style="rhombus;whiteSpace=wrap;html=1;" vertex="1" parent="WIyWlLk6GJQsqaUBKTNV-1">
          <mxGeometry x="180" y="140" width="80" height="80" as="geometry" />
        </mxCell>
      </root>
    </mxGraphModel>
  </diagram>
</mxfile>
